<svg xmlns="http://www.w3.org/2000/svg" viewBox="0 0 32 32"><path fill="#a7d9fc" d="M27.38,27.42a2,2,0,0,1-2.83,0L23.08,26a1,1,0,0,1-.29-.7,1,1,0,0,1,.29-.71l1.46-1.46a1,1,0,0,1,.71-.29,1,1,0,0,1,.7.29l1.47,1.47A2,2,0,0,1,27.38,27.42Z"/><rect width="2" height="2" x="10.99" y="13.99" fill="#d9a4ff"/><path fill="#4473b7" d="M13,16V14H11v2Zm-2,2a2,2,0,0,1-2-2V14a2,2,0,0,1,2-2h2V9a1,1,0,0,1,1-1h2a1,1,0,0,1,0,2H15v6a2,2,0,0,1-2,2Z"/><path fill="#4473b7" d="M28,26a2,2,0,0,0-.59-1.41L26,23.08a1,1,0,0,0-.7-.29,1,1,0,0,0-.71.29l-1.46,1.46a1,1,0,0,0,0,1.41l1.47,1.47A2,2,0,0,0,28,26ZM4,13a9,9,0,0,0,15.3,6.43l0,0s0,0,0,0a1,1,0,0,1,.7-.29,1,1,0,0,1,.71.29l2.33,2.33,0,0a3.06,3.06,0,0,1,4.24,0l1.46,1.46a4,4,0,0,1-5.7,5.7l-1.46-1.46a3,3,0,0,1,0-4.24l0,0L20,21.44A11,11,0,1,1,24,13a11.09,11.09,0,0,1-.5,3.3,1,1,0,0,1-1.91-.6A9.11,9.11,0,0,0,22,13,9,9,0,0,0,4,13Z"/></svg>